<svg xmlns="http://www.w3.org/2000/svg" viewBox="0 0 704 449">
  <path d="M481.94 136.51h101.17c37.7 0 68.25-30.56 68.25-68.25S620.81 0 583.11 0H481.94c-37.7 0-68.25 30.56-68.25 68.25s30.56 68.25 68.25 68.25Z" fill="#e6e6e6"/>
  <path d="M635.75 156.24h-.01c-37.7 0-68.25 30.56-68.25 68.25s30.56 68.25 68.25 68.25h.01c37.7 0 68.25-30.56 68.25-68.25s-30.56-68.25-68.25-68.25Z" fill="#fff"/>
  <path d="M68.75 312.24h-.01C31.04 312.24.48 342.8.48 380.5s30.56 68.25 68.25 68.25h.01c37.7 0 68.25-30.56 68.25-68.25s-30.56-68.25-68.25-68.25ZM68.25 136.51h257.44c37.7 0 68.26-30.56 68.26-68.25S363.39 0 325.69 0H68.25C30.56 0 0 30.56 0 68.25s30.56 68.25 68.25 68.25ZM325.69 312.49H224.52c-37.7 0-68.25 30.56-68.25 68.25S186.83 449 224.52 449h101.17c37.7 0 68.26-30.56 68.26-68.26s-30.56-68.25-68.26-68.25ZM479.48 156.24H68.25C30.56 156.24 0 186.8 0 224.5s30.56 68.26 68.25 68.26h411.23c37.7 0 68.25-30.56 68.25-68.26s-30.56-68.26-68.25-68.26Z"/>
</svg>